<svg width="345.85" height="43.45" viewBox="0 0 345.85 43.45" xmlns="http://www.w3.org/2000/svg">
    <g id="svgGroup" stroke-linecap="round" fill-rule="evenodd" font-size="9pt" stroke="#000" stroke-width="0.25mm" fill="black" style="stroke:#000;stroke-width:0.25mm;fill:black">
        <path d="M 223.963 1.797 A 7.612 7.612 0 0 0 223.9 2.5 Q 223.9 2.894 223.517 7.154 A 1252.803 1252.803 0 0 1 223.4 8.45 A 111.316 111.316 0 0 1 223.048 11.745 Q 221.843 21.609 219.05 29 A 52.62 52.62 0 0 1 218.749 28.329 Q 216.383 22.957 208.85 3.4 A 5.314 5.314 0 0 0 208.356 2.471 A 6.38 6.38 0 0 0 207.425 1.375 Q 206.45 0.45 205.9 0.45 Q 205.209 0.45 205.08 1.509 A 4.504 4.504 0 0 0 205.05 2.05 Q 204.95 5.25 201.7 18.125 A 1160.747 1160.747 0 0 0 201.539 18.765 Q 198.995 28.868 198.546 31.443 A 5.323 5.323 0 0 0 198.45 32.2 A 3.237 3.237 0 0 0 198.793 33.635 A 4.555 4.555 0 0 0 199.375 34.525 A 6.718 6.718 0 0 0 199.745 34.942 Q 200.163 35.371 200.517 35.54 A 1.008 1.008 0 0 0 200.95 35.65 A 0.214 0.214 0 0 0 201.001 35.644 Q 201.434 35.537 202 33.65 A 27.448 27.448 0 0 0 202.038 33.524 Q 202.536 31.833 203.784 26.885 A 934.14 934.14 0 0 0 204.425 24.325 A 2093.455 2093.455 0 0 1 204.666 23.359 Q 206.35 16.615 207.75 11.2 A 5817.673 5817.673 0 0 0 209.75 16.281 Q 215.316 30.405 216.6 33.4 Q 217.05 34.35 217.875 35 Q 218.381 35.399 218.821 35.553 A 1.6 1.6 0 0 0 219.35 35.65 A 1.512 1.512 0 0 0 220.296 35.262 Q 221.412 34.359 222.602 31.351 A 39.284 39.284 0 0 0 223.375 29.2 A 85.512 85.512 0 0 0 224.849 24.208 A 102.36 102.36 0 0 0 226.775 15.2 Q 228.05 7.65 228.05 3.55 Q 228.05 2.65 226.95 1.5 Q 225.85 0.35 224.925 0.35 A 0.697 0.697 0 0 0 224.704 0.384 Q 224.135 0.573 223.963 1.797 Z M 283.35 5.3 Q 280.2 5.3 276.375 8.75 A 28.637 28.637 0 0 0 271.647 14.309 A 35.107 35.107 0 0 0 269.85 17.375 A 27.444 27.444 0 0 0 268.153 21.307 Q 267.15 24.288 267.15 27 Q 267.15 28.8 268.3 30.075 A 4.145 4.145 0 0 0 269.29 30.895 A 3.343 3.343 0 0 0 271 31.35 Q 273.247 31.35 276.217 29.049 A 21.643 21.643 0 0 0 276.625 28.725 A 26.661 26.661 0 0 0 280.103 25.289 A 35.123 35.123 0 0 0 282.6 21.95 Q 280.424 22.533 279.124 22.663 A 6.839 6.839 0 0 1 278.45 22.7 A 4.184 4.184 0 0 1 277.277 22.542 A 3.411 3.411 0 0 1 276.15 21.975 Q 275.378 21.386 275.233 20.846 A 0.948 0.948 0 0 1 275.2 20.6 A 0.684 0.684 0 0 1 275.437 20.105 Q 275.855 19.7 277.008 19.406 A 11.043 11.043 0 0 1 277.35 19.325 A 17.618 17.618 0 0 1 279.117 19.036 Q 280.018 18.931 281.055 18.886 A 38.589 38.589 0 0 1 282.75 18.85 A 3.406 3.406 0 0 1 285.364 19.997 A 4.561 4.561 0 0 1 285.675 20.375 A 5.766 5.766 0 0 1 286.796 23.674 A 7.126 7.126 0 0 1 286.8 23.925 Q 286.8 25.559 285.173 30.756 A 155.209 155.209 0 0 1 284.3 33.45 Q 281.8 40.95 280.525 40.95 A 1.602 1.602 0 0 1 279.997 40.87 Q 279.25 40.61 279.25 39.5 Q 279.25 38.235 279.842 36.155 A 29.004 29.004 0 0 1 279.975 35.7 A 382.786 382.786 0 0 1 281.475 30.854 A 409.306 409.306 0 0 1 281.5 30.775 A 1843.341 1843.341 0 0 0 281.881 29.57 Q 282.349 28.092 282.691 26.998 A 588.327 588.327 0 0 0 282.8 26.65 A 27.429 27.429 0 0 1 280.36 30.162 A 20.085 20.085 0 0 1 277.25 33.225 A 13.932 13.932 0 0 1 275.139 34.606 Q 273.861 35.275 272.614 35.515 A 7.325 7.325 0 0 1 271.225 35.65 Q 268.3 35.65 265.45 32.925 A 10.648 10.648 0 0 1 263.777 30.91 A 7.319 7.319 0 0 1 262.6 26.95 Q 262.6 22.81 264.751 17.897 A 38.165 38.165 0 0 1 265.8 15.7 A 37.934 37.934 0 0 1 272.591 6.282 A 35.586 35.586 0 0 1 273.85 5.075 A 23.95 23.95 0 0 1 276.604 2.887 Q 279.929 0.65 282.95 0.65 A 2.601 2.601 0 0 1 284.246 1.015 Q 284.659 1.249 285.067 1.635 A 6.893 6.893 0 0 1 285.7 2.325 Q 287.05 4 287.05 5.025 Q 287.05 6.05 286.5 6.05 A 0.408 0.408 0 0 1 286.416 6.037 Q 286.217 5.99 285.665 5.778 A 31.006 31.006 0 0 1 285.4 5.675 A 5.448 5.448 0 0 0 283.623 5.306 A 6.294 6.294 0 0 0 283.35 5.3 Z M 132.55 5.75 L 132.55 5.9 A 18.661 18.661 0 0 1 132.406 8.068 Q 132.15 10.23 131.439 13.239 A 94.126 94.126 0 0 1 130.7 16.15 A 1.878 1.878 0 0 0 130.863 16.167 Q 131.241 16.194 132.252 16.199 A 98.693 98.693 0 0 0 132.725 16.2 A 32.191 32.191 0 0 0 133.918 16.176 Q 135.261 16.125 137.088 15.972 A 111.153 111.153 0 0 0 137.35 15.95 Q 139.57 15.759 140.955 15.714 A 23.962 23.962 0 0 1 141.725 15.7 A 4.694 4.694 0 0 1 142.207 15.723 Q 142.694 15.773 142.942 15.937 A 0.529 0.529 0 0 1 143.2 16.4 A 1.583 1.583 0 0 1 142.623 17.586 Q 141.703 18.431 139.314 18.954 A 19.733 19.733 0 0 1 139.1 19 A 37.988 37.988 0 0 1 135.264 19.581 Q 133.294 19.783 131.093 19.833 A 65.196 65.196 0 0 1 129.6 19.85 A 233.78 233.78 0 0 0 128.682 22.819 Q 126.962 28.533 126.902 30.093 A 2.8 2.8 0 0 0 126.9 30.2 Q 126.9 30.8 127.275 31.175 A 1.263 1.263 0 0 0 128.033 31.537 A 1.735 1.735 0 0 0 128.25 31.55 Q 134 31.55 140.95 29.7 A 93.419 93.419 0 0 1 141.727 29.496 Q 143.054 29.154 143.448 29.107 A 0.898 0.898 0 0 1 143.55 29.1 A 0.745 0.745 0 0 1 143.911 29.182 Q 144.218 29.35 144.283 29.855 A 2.33 2.33 0 0 1 144.3 30.15 A 1.586 1.586 0 0 1 143.863 31.17 Q 142.948 32.247 140.116 33.359 A 33.479 33.479 0 0 1 138.775 33.85 Q 133.25 35.75 128.1 35.75 A 6.593 6.593 0 0 1 125.51 35.249 A 6.291 6.291 0 0 1 124.075 34.4 A 4.771 4.771 0 0 1 122.974 33.213 A 4.031 4.031 0 0 1 122.35 31 A 9.322 9.322 0 0 1 122.442 29.794 Q 122.719 27.712 123.825 24 A 361.131 361.131 0 0 0 125.306 18.888 A 429.396 429.396 0 0 0 126.8 13.45 A 55.799 55.799 0 0 0 127.654 9.807 Q 128.3 6.527 128.3 4 A 3.379 3.379 0 0 1 128.386 3.257 A 4.213 4.213 0 0 1 128.5 2.85 Q 129.302 1.104 138.299 1.006 A 100.966 100.966 0 0 1 139.4 1 A 108.981 108.981 0 0 1 142.295 1.035 Q 147.924 1.186 149.124 1.975 A 0.591 0.591 0 0 1 149.45 2.45 A 0.906 0.906 0 0 1 149.074 3.172 Q 148.551 3.596 147.3 3.8 Q 145.54 4.142 142.656 4.413 A 96.4 96.4 0 0 1 142.525 4.425 Q 139.785 4.678 138.551 4.804 A 99.285 99.285 0 0 0 138.35 4.825 A 18.412 18.412 0 0 0 137.78 4.896 Q 136.406 5.084 133.127 5.65 A 491.396 491.396 0 0 0 132.55 5.75 Z M 97.95 0.875 A 0.905 0.905 0 0 0 97.867 1.058 Q 97.75 1.401 97.75 2.05 A 11.913 11.913 0 0 1 97.71 2.964 Q 97.462 6.164 95.65 13.475 A 130.66 130.66 0 0 0 94.778 17.212 Q 93.55 22.879 93.55 25.9 Q 93.55 29.85 95.875 32.9 A 9.581 9.581 0 0 0 97.248 34.374 A 6.147 6.147 0 0 0 101.35 35.95 A 9.009 9.009 0 0 0 103.134 35.773 Q 105.071 35.382 106.902 34.133 A 15.692 15.692 0 0 0 109.45 31.925 A 21.059 21.059 0 0 0 110.294 30.975 Q 112.034 28.894 113.416 26.185 A 36.373 36.373 0 0 0 115.5 21.15 Q 117.75 14.4 117.75 6.7 A 8.377 8.377 0 0 0 117.625 5.221 A 6.01 6.01 0 0 0 116.25 2.275 Q 115.26 1.136 114.422 0.749 A 1.961 1.961 0 0 0 113.6 0.55 A 1.273 1.273 0 0 0 113.379 0.568 Q 112.864 0.659 112.74 1.205 A 1.784 1.784 0 0 0 112.7 1.6 A 2.976 2.976 0 0 0 112.701 1.671 Q 112.712 2.122 112.849 3.469 A 133.774 133.774 0 0 0 112.925 4.2 Q 113.15 6.3 113.15 8.4 Q 113.15 12.9 111.975 17.325 A 45.241 45.241 0 0 1 111.634 18.543 Q 110.557 22.182 109.075 24.825 A 29.736 29.736 0 0 1 108.837 25.241 Q 108.058 26.58 107.223 27.684 A 17.3 17.3 0 0 1 105.35 29.8 Q 104.127 30.962 103.035 31.413 A 3.49 3.49 0 0 1 101.7 31.7 A 2.769 2.769 0 0 1 99.674 30.832 A 4.584 4.584 0 0 1 99 29.95 A 6.237 6.237 0 0 1 98.531 28.982 Q 97.95 27.476 97.95 25.375 A 11.175 11.175 0 0 1 97.988 24.503 Q 98.167 22.236 99.186 17.863 A 151.021 151.021 0 0 1 99.975 14.65 A 279.855 279.855 0 0 0 100.222 13.678 Q 102 6.638 102 4.975 Q 102 3.2 100.8 1.875 Q 99.6 0.55 98.875 0.55 A 2.825 2.825 0 0 0 98.705 0.555 Q 98.378 0.575 98.18 0.674 A 0.55 0.55 0 0 0 97.95 0.875 Z M 2.111 35.57 A 1.286 1.286 0 0 0 2.65 35.7 A 0.204 0.204 0 0 0 2.777 35.643 Q 3.089 35.382 3.587 33.917 A 29.876 29.876 0 0 0 3.85 33.1 A 52.586 52.586 0 0 0 4.069 32.455 A 46.888 46.888 0 0 0 4.65 30.575 A 73.683 73.683 0 0 1 4.795 30.078 Q 5.222 28.622 6.539 24.244 A 5667.219 5667.219 0 0 1 7.35 21.55 Q 8.6 25.2 14.15 30.425 Q 18.182 34.221 20.869 35.259 A 5.139 5.139 0 0 0 22.7 35.65 A 3.628 3.628 0 0 0 23.148 35.624 Q 23.965 35.522 24.227 35.017 A 1.218 1.218 0 0 0 24.35 34.45 Q 24.35 33.75 23.1 32.6 A 78.716 78.716 0 0 0 23.019 32.525 A 71.892 71.892 0 0 0 21.825 31.45 Q 21.2 30.9 20.175 30.05 A 43.332 43.332 0 0 1 19.119 29.144 A 55.685 55.685 0 0 1 18 28.125 Q 17.138 27.319 16.528 26.752 A 440.11 440.11 0 0 0 16.15 26.4 A 24.766 24.766 0 0 1 15.869 26.134 Q 15.357 25.644 14.5 24.783 A 226.715 226.715 0 0 1 13.725 24 A 12.512 12.512 0 0 1 13.073 23.29 Q 12.404 22.497 12.152 21.86 A 1.941 1.941 0 0 1 12 21.15 A 0.153 0.153 0 0 1 12.006 21.109 Q 12.074 20.864 12.925 20.405 A 13.457 13.457 0 0 1 13.375 20.175 A 68.9 68.9 0 0 0 14.291 19.717 Q 15.359 19.172 16.7 18.45 A 39.708 39.708 0 0 0 17.432 18.046 A 44.538 44.538 0 0 0 20.625 16.05 A 11.663 11.663 0 0 0 21.05 15.745 A 12.229 12.229 0 0 0 23.975 12.575 Q 25.35 10.45 25.35 8 Q 25.35 5.862 24.284 4.298 A 6.874 6.874 0 0 0 22.325 2.425 Q 19.3 0.45 15.175 0.45 A 25.554 25.554 0 0 0 12.546 0.582 A 20.662 20.662 0 0 0 7.65 1.675 Q 4.25 2.9 4.25 4.05 A 2.024 2.024 0 0 0 4.309 4.521 Q 4.422 4.992 4.75 5.55 Q 5.25 6.4 5.9 6.8 A 33.71 33.71 0 0 1 5.662 8.892 Q 4.976 13.697 2.75 21.55 Q 0.494 29.507 0.089 31.694 A 4.326 4.326 0 0 0 0 32.375 A 2.674 2.674 0 0 0 0.028 32.762 Q 0.106 33.295 0.399 33.823 A 4.65 4.65 0 0 0 0.95 34.6 Q 1.573 35.322 2.111 35.57 Z M 31.85 25.55 L 31.5 25.55 Q 30.5 25.55 29.725 24.9 Q 28.95 24.25 28.95 23.275 A 0.706 0.706 0 0 1 29.204 22.801 Q 30.071 21.937 33.9 20.7 A 50.545 50.545 0 0 0 34.543 19.192 Q 34.919 18.266 35.2 17.45 A 504.3 504.3 0 0 1 35.831 15.894 Q 36.54 14.154 37.489 11.855 A 1756.716 1756.716 0 0 1 38.4 9.65 A 2584.913 2584.913 0 0 0 39.116 7.919 Q 40.553 4.442 41 3.325 Q 41.55 1.95 42.925 0.975 A 6.181 6.181 0 0 1 43.935 0.386 Q 44.782 0 45.6 0 A 1.243 1.243 0 0 1 46.469 0.414 Q 47.3 1.231 48.026 3.662 A 28.257 28.257 0 0 1 48.375 4.95 Q 49.301 8.692 49.955 13.776 A 134.495 134.495 0 0 1 50.35 17.2 A 30.531 30.531 0 0 1 51.351 17.109 Q 52.144 17.05 52.8 17.05 A 5.82 5.82 0 0 1 53.565 17.096 Q 54.392 17.206 54.759 17.583 A 1.055 1.055 0 0 1 55.05 18.35 Q 55.05 19.248 51.122 20.413 A 42.305 42.305 0 0 1 50.65 20.55 A 163.015 163.015 0 0 1 50.894 24.232 Q 50.972 25.675 51.011 26.967 A 80.729 80.729 0 0 1 51.05 29.4 A 38.833 38.833 0 0 1 51.011 31.215 Q 50.8 35.7 49.45 35.7 A 1.251 1.251 0 0 1 48.505 35.269 Q 48.336 35.088 48.193 34.83 A 3.214 3.214 0 0 1 48.1 34.65 A 4.893 4.893 0 0 1 47.848 33.983 Q 47.628 33.262 47.456 32.163 A 29.274 29.274 0 0 1 47.3 31 Q 46.95 26.2 46.55 21.6 A 532.999 532.999 0 0 1 44.4 22.169 A 396.21 396.21 0 0 1 42.45 22.675 A 124.227 124.227 0 0 0 41.406 22.948 Q 39.673 23.41 36.883 24.191 A 915.754 915.754 0 0 0 36.85 24.2 Q 32.611 35.279 31.713 35.685 A 0.155 0.155 0 0 1 31.65 35.7 A 1.568 1.568 0 0 1 31.006 35.551 Q 30.526 35.336 30.006 34.809 A 5.986 5.986 0 0 1 29.925 34.725 A 3.862 3.862 0 0 1 29.37 33.992 A 2.662 2.662 0 0 1 29 32.65 A 0.971 0.971 0 0 1 29.045 32.43 Q 29.356 31.325 31.85 25.55 Z M 295.85 25.55 L 295.5 25.55 Q 294.5 25.55 293.725 24.9 Q 292.95 24.25 292.95 23.275 A 0.706 0.706 0 0 1 293.204 22.801 Q 294.071 21.937 297.9 20.7 A 50.545 50.545 0 0 0 298.543 19.192 Q 298.919 18.266 299.2 17.45 A 504.3 504.3 0 0 1 299.831 15.894 Q 300.54 14.154 301.489 11.855 A 1756.716 1756.716 0 0 1 302.4 9.65 A 2584.913 2584.913 0 0 0 303.116 7.919 Q 304.553 4.442 305 3.325 Q 305.55 1.95 306.925 0.975 A 6.181 6.181 0 0 1 307.935 0.386 Q 308.782 0 309.6 0 A 1.243 1.243 0 0 1 310.469 0.414 Q 311.3 1.231 312.026 3.662 A 28.257 28.257 0 0 1 312.375 4.95 Q 313.301 8.692 313.955 13.776 A 134.495 134.495 0 0 1 314.35 17.2 A 30.531 30.531 0 0 1 315.351 17.109 Q 316.144 17.05 316.8 17.05 A 5.82 5.82 0 0 1 317.565 17.096 Q 318.392 17.206 318.759 17.583 A 1.055 1.055 0 0 1 319.05 18.35 Q 319.05 19.248 315.122 20.413 A 42.305 42.305 0 0 1 314.65 20.55 A 163.015 163.015 0 0 1 314.894 24.232 Q 314.972 25.675 315.011 26.967 A 80.729 80.729 0 0 1 315.05 29.4 A 38.833 38.833 0 0 1 315.011 31.215 Q 314.8 35.7 313.45 35.7 A 1.251 1.251 0 0 1 312.505 35.269 Q 312.336 35.088 312.193 34.83 A 3.214 3.214 0 0 1 312.1 34.65 A 4.893 4.893 0 0 1 311.848 33.983 Q 311.628 33.262 311.456 32.163 A 29.274 29.274 0 0 1 311.3 31 Q 310.95 26.2 310.55 21.6 A 532.999 532.999 0 0 1 308.4 22.169 A 396.21 396.21 0 0 1 306.45 22.675 A 124.227 124.227 0 0 0 305.406 22.948 Q 303.673 23.41 300.883 24.191 A 915.754 915.754 0 0 0 300.85 24.2 Q 296.611 35.279 295.713 35.685 A 0.155 0.155 0 0 1 295.65 35.7 A 1.568 1.568 0 0 1 295.006 35.551 Q 294.526 35.336 294.006 34.809 A 5.986 5.986 0 0 1 293.925 34.725 A 3.862 3.862 0 0 1 293.37 33.992 A 2.662 2.662 0 0 1 293 32.65 A 0.971 0.971 0 0 1 293.045 32.43 Q 293.356 31.325 295.85 25.55 Z M 82.854 2.755 A 8.763 8.763 0 0 0 77.05 0.55 A 6.999 6.999 0 0 0 75.536 0.721 Q 74.478 0.955 73.365 1.509 A 14.517 14.517 0 0 0 71.375 2.725 Q 68.35 4.9 65.875 8.325 A 27.881 27.881 0 0 0 63.736 11.816 A 35.747 35.747 0 0 0 61.75 16.45 A 31.691 31.691 0 0 0 61.454 17.335 A 27.781 27.781 0 0 0 60.1 25.8 A 8.799 8.799 0 0 0 61.082 29.87 A 11.054 11.054 0 0 0 63 32.5 Q 65.9 35.5 69.1 35.5 A 12.657 12.657 0 0 0 71.135 35.336 A 13.818 13.818 0 0 0 75.35 33.9 A 92.053 92.053 0 0 0 75.749 34.926 Q 79.124 43.45 81.25 43.45 A 1.967 1.967 0 0 0 81.731 43.396 Q 82.272 43.259 82.432 42.772 A 1.511 1.511 0 0 0 82.5 42.3 Q 82.5 41.55 82 40.175 Q 81.5 38.8 80.45 36.175 A 189.251 189.251 0 0 1 79.828 34.6 Q 79.534 33.846 79.274 33.157 A 103.143 103.143 0 0 1 78.7 31.6 A 24.673 24.673 0 0 0 81.533 28.634 A 28.76 28.76 0 0 0 85.1 22.925 A 27.848 27.848 0 0 0 86.764 18.596 A 20.509 20.509 0 0 0 87.6 12.925 Q 87.6 8.15 84.425 4.35 A 13.013 13.013 0 0 0 82.854 2.755 Z M 158.4 1.75 Q 158.4 0.95 158.625 0.6 Q 158.85 0.25 159.575 0.25 A 1.149 1.149 0 0 1 160.039 0.36 Q 160.624 0.62 161.392 1.491 A 10.304 10.304 0 0 1 161.4 1.5 A 4.903 4.903 0 0 1 162.092 2.499 A 3.577 3.577 0 0 1 162.5 4.15 Q 162.5 7.65 158.2 21.85 A 204.173 204.173 0 0 0 157.469 24.242 Q 156.05 29.003 156.05 30.1 Q 156.05 31.45 157.35 31.45 Q 162.823 31.45 169.329 29.714 A 64.935 64.935 0 0 0 169.75 29.6 A 68.571 68.571 0 0 1 170.496 29.396 Q 171.98 29 172.325 29 A 1.61 1.61 0 0 1 172.52 29.011 Q 172.787 29.044 172.9 29.175 Q 173.021 29.316 173.044 29.668 A 2.743 2.743 0 0 1 173.05 29.85 Q 173.05 31.95 167.925 33.8 Q 162.8 35.65 157.5 35.65 A 6.904 6.904 0 0 1 154.966 35.195 A 6.4 6.4 0 0 1 153.325 34.25 A 5.386 5.386 0 0 1 152.314 33.225 A 3.787 3.787 0 0 1 151.55 30.925 A 7.039 7.039 0 0 1 151.67 29.852 Q 152.099 27.322 154.049 20.358 A 474.848 474.848 0 0 1 154.975 17.1 Q 158.4 5.2 158.4 1.75 Z M 331.2 1.75 Q 331.2 0.95 331.425 0.6 Q 331.65 0.25 332.375 0.25 A 1.149 1.149 0 0 1 332.839 0.36 Q 333.424 0.62 334.192 1.491 A 10.304 10.304 0 0 1 334.2 1.5 A 4.903 4.903 0 0 1 334.892 2.499 A 3.577 3.577 0 0 1 335.3 4.15 Q 335.3 7.65 331 21.85 A 204.173 204.173 0 0 0 330.269 24.242 Q 328.85 29.003 328.85 30.1 Q 328.85 31.45 330.15 31.45 Q 335.623 31.45 342.129 29.714 A 64.935 64.935 0 0 0 342.55 29.6 A 68.571 68.571 0 0 1 343.296 29.396 Q 344.78 29 345.125 29 A 1.61 1.61 0 0 1 345.32 29.011 Q 345.587 29.044 345.7 29.175 Q 345.821 29.316 345.844 29.668 A 2.743 2.743 0 0 1 345.85 29.85 Q 345.85 31.95 340.725 33.8 Q 335.6 35.65 330.3 35.65 A 6.904 6.904 0 0 1 327.766 35.195 A 6.4 6.4 0 0 1 326.125 34.25 A 5.386 5.386 0 0 1 325.114 33.225 A 3.787 3.787 0 0 1 324.35 30.925 A 7.039 7.039 0 0 1 324.47 29.852 Q 324.899 27.322 326.849 20.358 A 474.848 474.848 0 0 1 327.775 17.1 Q 331.2 5.2 331.2 1.75 Z M 236.41 34.079 A 6.414 6.414 0 0 0 240.6 35.65 A 10.913 10.913 0 0 0 242.044 35.554 Q 245.811 35.052 249.525 31.925 Q 253.95 28.2 256.6 22.925 A 27.207 27.207 0 0 0 258.412 18.4 A 19.621 19.621 0 0 0 259.25 12.85 Q 259.25 8.05 256.45 4.225 A 11.963 11.963 0 0 0 255.588 3.174 A 8.067 8.067 0 0 0 249.45 0.4 A 6.807 6.807 0 0 0 247.72 0.633 Q 245.863 1.12 243.8 2.625 A 22.68 22.68 0 0 0 241.32 4.729 A 27.689 27.689 0 0 0 238.225 8.35 A 28.988 28.988 0 0 0 236.178 11.642 A 36.041 36.041 0 0 0 234.025 16.55 Q 232.35 21.25 232.35 25.8 A 9.607 9.607 0 0 0 233.246 29.794 A 13.515 13.515 0 0 0 234.825 32.4 A 10.16 10.16 0 0 0 236.41 34.079 Z M 246.675 28.75 A 25.867 25.867 0 0 0 250.986 23.676 A 31.063 31.063 0 0 0 252.3 21.475 Q 254.65 17.15 254.65 13.3 Q 254.65 9.45 253.175 7.05 Q 251.7 4.65 249.7 4.65 A 3.5 3.5 0 0 0 248.357 4.951 Q 247.201 5.434 245.794 6.693 A 21.27 21.27 0 0 0 244.7 7.75 Q 241.7 10.85 239.3 15.875 A 26.428 26.428 0 0 0 237.597 20.417 A 19.598 19.598 0 0 0 236.9 25.5 Q 236.9 27.761 237.711 29.329 A 5.779 5.779 0 0 0 238.1 29.975 A 5.265 5.265 0 0 0 238.843 30.842 Q 239.365 31.325 239.951 31.536 A 2.778 2.778 0 0 0 240.9 31.7 A 5.324 5.324 0 0 0 242.797 31.319 Q 244.334 30.733 246.107 29.244 A 21.51 21.51 0 0 0 246.675 28.75 Z M 64.5 25.45 A 7.61 7.61 0 0 0 64.768 27.519 A 5.849 5.849 0 0 0 66.125 29.95 A 6.563 6.563 0 0 0 67.248 30.928 Q 68.388 31.7 69.65 31.7 A 5.031 5.031 0 0 0 71.211 31.433 Q 71.889 31.212 72.62 30.807 A 12.78 12.78 0 0 0 73.95 29.95 Q 70.948 20.564 70.485 14.682 A 25.922 25.922 0 0 1 70.4 12.65 A 18.343 18.343 0 0 1 70.466 11.053 Q 70.534 10.271 70.674 9.59 A 10.192 10.192 0 0 1 70.75 9.25 A 28.253 28.253 0 0 0 67.252 14.754 A 33.625 33.625 0 0 0 66.275 16.95 A 25.298 25.298 0 0 0 64.89 21.54 A 20.275 20.275 0 0 0 64.5 25.45 Z M 77.15 26.95 Q 79.7 23.95 81.375 20.275 A 19.039 19.039 0 0 0 82.718 16.237 A 15.696 15.696 0 0 0 83.05 13.05 A 11.581 11.581 0 0 0 82.73 10.259 A 8.684 8.684 0 0 0 81.25 7.1 Q 80.163 5.65 78.984 5.076 A 3.58 3.58 0 0 0 77.4 4.7 Q 76.6 4.7 75.65 5.1 A 5.148 5.148 0 0 0 74.955 6.515 Q 74.528 7.819 74.502 9.697 A 17.827 17.827 0 0 0 74.5 9.95 A 55.763 55.763 0 0 0 75.738 21.42 A 67.968 67.968 0 0 0 77.15 26.95 Z M 10.2 8.15 Q 10.2 11.4 8.1 18.9 A 8.572 8.572 0 0 1 8.617 18.539 Q 9.545 17.934 11.35 16.975 Q 13.75 15.7 15.675 14.625 A 13.223 13.223 0 0 0 18.589 12.4 A 15.429 15.429 0 0 0 19.2 11.75 A 7.267 7.267 0 0 0 20.167 10.393 A 4.964 4.964 0 0 0 20.8 8 A 2.556 2.556 0 0 0 19.231 5.559 Q 17.889 4.9 15.4 4.9 A 11.819 11.819 0 0 0 13.277 5.106 Q 12.248 5.295 11.108 5.655 A 24.558 24.558 0 0 0 9.7 6.15 A 6.543 6.543 0 0 1 10.005 6.947 Q 10.139 7.387 10.181 7.791 A 3.472 3.472 0 0 1 10.2 8.15 Z M 44.25 18.144 A 75.572 75.572 0 0 0 38.7 19.4 A 577.93 577.93 0 0 1 40.272 15.269 Q 42.727 8.893 44.45 4.95 A 67.982 67.982 0 0 1 44.851 7.199 Q 45.511 11.254 46.2 17.8 A 85.959 85.959 0 0 0 44.25 18.144 Z M 308.25 18.144 A 75.572 75.572 0 0 0 302.7 19.4 A 577.93 577.93 0 0 1 304.272 15.269 Q 306.727 8.893 308.45 4.95 A 67.982 67.982 0 0 1 308.851 7.199 Q 309.511 11.254 310.2 17.8 A 85.959 85.959 0 0 0 308.25 18.144 Z" vector-effect="non-scaling-stroke" />
    </g>
</svg>